<svg xmlns="http://www.w3.org/2000/svg" width="24" height="24" viewBox="0 0 24 24">
  <g id="call" transform="translate(-108 -188)">
    <g id="call-2" data-name="call">
      <path id="Vector" d="M9.05,12.95,7.2,14.8a1,1,0,0,1-1.41.01c-.11-.11-.22-.21-.33-.32a28.414,28.414,0,0,1-2.79-3.27A17.828,17.828,0,0,1,.71,7.81,8.586,8.586,0,0,1,0,4.54,5.173,5.173,0,0,1,.36,2.61,4.6,4.6,0,0,1,1.51.94,2.93,2.93,0,0,1,3.59,0,1.879,1.879,0,0,1,4.4.18a1.63,1.63,0,0,1,.67.56L7.39,4.01a3.422,3.422,0,0,1,.4.7,1.581,1.581,0,0,1,.14.61,1.357,1.357,0,0,1-.21.71,3.4,3.4,0,0,1-.56.71l-.76.79a.535.535,0,0,0-.16.4.908.908,0,0,0,.03.23c.03.08.06.14.08.2a8.3,8.3,0,0,0,.93,1.28c.45.52.93,1.05,1.45,1.58.1.1.21.2.31.3A1,1,0,0,1,9.05,12.95Z" transform="translate(110 190)" fill="#e32055"/>
      <path id="Vector-2" data-name="Vector" d="M11.882,4.1a2.43,2.43,0,0,1-.143.813,2.337,2.337,0,0,1-.1.23,3.947,3.947,0,0,1-.651.976A4.313,4.313,0,0,1,9.424,7.251c-.01,0-.019.01-.029.01a4.833,4.833,0,0,1-1.837.354,7.972,7.972,0,0,1-3.119-.7A20.7,20.7,0,0,1,.79,4.81C.417,4.533,3.684,1.4,3.885,1.5c.048.019.105.048.172.077a.661.661,0,0,0,.239.038.526.526,0,0,0,.392-.163L5.415.737A2.935,2.935,0,0,1,6.1.2,1.274,1.274,0,0,1,6.783,0a1.527,1.527,0,0,1,.584.124A3.7,3.7,0,0,1,8.036.5L11.2,2.746a1.451,1.451,0,0,1,.526.612A1.963,1.963,0,0,1,11.882,4.1Z" transform="translate(115.088 200.04)" fill="#e32055"/>
      <path id="Vector-3" data-name="Vector" d="M0,0H24V24H0Z" transform="translate(132 212) rotate(180)" fill="none" opacity="0"/>
    </g>
  </g>
</svg>
