<svg xmlns="http://www.w3.org/2000/svg" width="24" height="24" viewBox="0 0 24 24">
  <g id="close" transform="translate(-236 -252)">
    <g id="close-circle">
      <path id="Vector" d="M10,0A10,10,0,1,0,20,10,10.016,10.016,0,0,0,10,0Zm3.36,12.3a.754.754,0,0,1,0,1.06.748.748,0,0,1-1.06,0L10,11.06l-2.3,2.3a.748.748,0,0,1-1.06,0,.754.754,0,0,1,0-1.06L8.94,10,6.64,7.7A.75.75,0,0,1,7.7,6.64L10,8.94l2.3-2.3A.75.75,0,0,1,13.36,7.7L11.06,10Z" transform="translate(238 254)" fill="#e32055"/>
      <path id="Vector-2" data-name="Vector" d="M0,0H24V24H0Z" transform="translate(260 276) rotate(180)" fill="none" opacity="0"/>
    </g>
  </g>
</svg>
