<svg xmlns="http://www.w3.org/2000/svg" width="24" height="24" viewBox="0 0 24 24">
  <g id="messages-3" transform="translate(-492 -252)">
    <g id="messages-3-2" data-name="messages-3">
      <path id="Vector" d="M0,0H24V24H0Z" transform="translate(492 252)" fill="none" opacity="0"/>
      <path id="Vector-2" data-name="Vector" d="M13.59,3.4V7.47a3.629,3.629,0,0,1-.13,1.01,3.155,3.155,0,0,1-3.27,2.39H7.47L4.45,12.88a.671.671,0,0,1-1.05-.56V10.87A3.4,3.4,0,0,1,.94,9.94,3.4,3.4,0,0,1,0,7.47V3.4A3.183,3.183,0,0,1,3,.02C3.13.01,3.26,0,3.4,0h6.79A3.212,3.212,0,0,1,13.59,3.4Z" transform="translate(494 261)" fill="#292d32"/>
      <path id="Vector-3" data-name="Vector" d="M12.75,13.6a4.225,4.225,0,0,0,3.08-1.17A4.225,4.225,0,0,0,17,9.35V4.25A4.246,4.246,0,0,0,12.75,0H4.25A4.246,4.246,0,0,0,0,4.25V5a.5.5,0,0,0,.5.5H7.19a4.9,4.9,0,0,1,4.9,4.9v2.7a.5.5,0,0,0,.5.5Z" transform="translate(497 254)" fill="#292d32"/>
    </g>
  </g>
</svg>
