<svg xmlns="http://www.w3.org/2000/svg" width="24" height="24" viewBox="0 0 24 24">
  <g id="notes" transform="translate(-108 -191)">
    <g id="archive-tick">
      <path id="Vector" d="M13.5,0H3.86A3.875,3.875,0,0,0,0,3.86V17.95c0,1.8,1.29,2.56,2.87,1.69l4.88-2.71a2.118,2.118,0,0,1,1.87,0l4.88,2.71c1.58.88,2.87.12,2.87-1.69V3.86A3.884,3.884,0,0,0,13.5,0ZM12.3,7.12l-4,4a.748.748,0,0,1-1.06,0l-1.5-1.5A.75.75,0,0,1,6.8,8.56l.97.97,3.47-3.47A.75.75,0,0,1,12.3,7.12Z" transform="translate(111.32 192.91)" fill="#292d32"/>
      <path id="Vector-2" data-name="Vector" d="M0,0H24V24H0Z" transform="translate(132 215) rotate(180)" fill="none" opacity="0"/>
    </g>
  </g>
</svg>
