<svg xmlns="http://www.w3.org/2000/svg" width="24" height="24" viewBox="0 0 24 24">
  <g id="whatsapp" transform="translate(-928 -469)">
    <g id="whatsapp-2" data-name="whatsapp">
      <path id="BG_1" data-name="BG 1" d="M0,0H24V24H0Z" transform="translate(928 469)" fill="none" opacity="0.58"/>
      <path id="Vector" d="M4.9,18.6A10,10,0,1,0,0,10a10.627,10.627,0,0,0,1.3,5L0,20Z" transform="translate(930 471)" fill="none" stroke="#fff" stroke-linecap="round" stroke-linejoin="round" stroke-width="1.5"/>
      <path id="Vector-2" data-name="Vector" d="M9,7.348a1.144,1.144,0,0,1-.113.491,1.857,1.857,0,0,1-.306.459,2.032,2.032,0,0,1-.739.531A2.266,2.266,0,0,1,6.963,9a3.761,3.761,0,0,1-1.469-.328,7.919,7.919,0,0,1-1.55-.891A12.952,12.952,0,0,1,2.465,6.52,12.791,12.791,0,0,1,1.208,5.049,8.019,8.019,0,0,1,.324,3.515,3.785,3.785,0,0,1,0,2.043a2.325,2.325,0,0,1,.162-.868A2.071,2.071,0,0,1,.681.423,1.321,1.321,0,0,1,1.618,0a.848.848,0,0,1,.365.081.734.734,0,0,1,.3.252L3.33,1.8a1.539,1.539,0,0,1,.18.315.71.71,0,0,1,.063.275.61.61,0,0,1-.095.319,1.531,1.531,0,0,1-.252.32l-.343.355a.241.241,0,0,0-.072.18.408.408,0,0,0,.014.1c.014.036.027.063.036.09a3.734,3.734,0,0,0,.419.576c.2.234.419.472.653.711s.478.459.717.661a3.459,3.459,0,0,0,.581.414c.023.009.05.023.081.036a.312.312,0,0,0,.113.018A.248.248,0,0,0,5.611,6.1l.343-.338a1.383,1.383,0,0,1,.324-.252.6.6,0,0,1,.32-.094.72.72,0,0,1,.275.058,1.744,1.744,0,0,1,.315.176L8.68,6.709A.683.683,0,0,1,8.928,7,.922.922,0,0,1,9,7.348Z" transform="translate(935.5 476.5)" fill="none" stroke="#fff" stroke-width="1.5"/>
      <path id="Vector-3" data-name="Vector" d="M0,0H24V24H0Z" transform="translate(928 469)" fill="none" opacity="0"/>
    </g>
  </g>
</svg>
